<svg width="743" height="555" viewBox="0 0 743 555" fill="none" xmlns="http://www.w3.org/2000/svg">
<path opacity="0.3" fill-rule="evenodd" clip-rule="evenodd" d="M275.486 1.83294C270.157 7.72345 266.555 26.5339 265.346 54.7794L264.616 71.8198L257.402 86.578C249.217 103.324 238.858 119.741 234.799 122.401C232.757 123.741 231.524 123.91 229.952 123.069C225.921 120.911 215.771 108.876 207.024 95.8832C190.709 71.6494 190.205 70.5863 186.769 53.2798C180.511 21.7516 173.329 5.59284 166.703 8.13572C160.964 10.3389 165.773 26.7022 180.305 54.4298C187.78 68.6899 187.927 69.1351 189.566 82.3761C193.025 110.315 192.829 136.089 189.132 139.787C186.574 142.345 160.829 132.551 138.406 120.486C127.662 114.706 125.979 113.329 116.156 102.278C104.595 89.2715 91.9891 77.9456 83.7952 73.2029C77.8194 69.7442 75.597 69.4627 73.5702 71.9045C71.3929 74.5287 75.0639 80.4357 82.983 87.0507C89.0578 92.1266 114.037 108.969 121.783 113.212C127.767 116.49 146.206 142.078 152.909 156.408C157.248 165.685 158.38 174.754 155.585 177.843C150.4 183.575 130.761 187.787 109.181 187.798C97.8144 187.805 96.1712 187.522 86.8826 183.977C67.4349 176.554 42.5258 170.215 32.8041 170.215C23.9749 170.215 21.2272 175.02 27.7526 179.049C35.442 183.797 52.3694 187.037 81.3343 189.305C100.557 190.81 100.575 190.813 111.158 195.781C131.533 205.346 146.139 215.44 148.467 221.565C151.103 228.498 139.983 240.63 116.026 256.965C108.552 262.061 105.265 263.664 102.287 263.668C100.132 263.671 91.4462 264.684 82.983 265.917C46.155 271.284 28.8484 278.682 32.8041 287.366C35.7596 293.855 46.8596 293.267 66.2358 285.595C77.4006 281.175 97.61 270.952 103.786 266.601C106.752 264.511 108.943 264.299 131.813 263.879C145.592 263.626 158.334 263.887 160.47 264.464C164.156 265.46 164.305 265.695 164.023 270.076C163.575 277.023 157.857 291.654 147.189 313.14L137.55 332.554L126.753 341.212C101.576 361.399 89.5513 377.459 96.7351 381.303C98.42 382.206 99.8664 382.05 102.821 380.648C109.649 377.407 117.465 367.461 135.563 338.987C139.442 332.885 148.56 325.828 169.813 312.48C189.132 300.346 197.963 296.302 203.671 296.977C206.207 297.277 213.228 298.148 219.273 298.914C228.846 300.126 231.663 300.068 241.114 298.465C247.083 297.451 254.872 295.448 258.426 294.013C261.979 292.578 264.886 291.556 264.886 291.744C264.886 292.517 251.93 299.421 244.537 302.589C235.058 306.65 0 466.413 0 468.796C0 469.626 1.1134 470.572 2.473 470.899C18.8465 474.834 401.371 555 403.772 555C407.604 555 406.72 555.845 504.6 458.529C540.026 423.307 569.533 394.489 570.171 394.489C570.81 394.489 589.243 422.702 611.135 457.185C633.027 491.667 651.979 520.609 653.25 521.499C656.436 523.731 669.69 523.719 671.546 521.483C672.292 520.583 672.604 519.071 672.24 518.121C671.875 517.171 653.273 486.988 630.9 451.05C608.528 415.111 590.223 384.757 590.223 383.595C590.223 382.258 618.25 353.737 666.612 305.858C708.625 264.265 743 229.593 743 228.809C743 228.024 741.887 227.383 740.527 227.384C736.436 227.385 246.936 307.557 244.458 308.632C240.065 310.536 18.4585 461.961 17.8892 463.447C17.5726 464.271 17.499 465.117 17.7243 465.327C17.9507 465.537 104.87 482.64 210.878 503.333C358.866 532.219 404.352 540.735 406.774 540.007C409.905 539.065 508.889 443.67 508.889 441.595C508.889 441.045 508.271 440.372 507.515 440.101C505.2 439.27 373.301 432.838 370.888 433.44C369.645 433.75 350.85 448.865 329.122 467.031C307.393 485.198 288.415 500.377 286.945 500.764C285.424 501.165 264.199 497.986 237.615 493.375L190.954 485.282L194.673 482.176C196.717 480.468 213.082 467.584 231.038 453.545C248.995 439.507 263.709 427.425 263.736 426.696C263.808 424.819 260.628 424.482 223.566 422.438C196.585 420.951 190.007 420.873 187.87 422.016C186.43 422.787 171.419 433.809 154.511 446.509C137.602 459.21 122.409 470.115 120.747 470.742C118.414 471.623 112.39 471.043 94.3093 468.198C81.4299 466.172 70.5674 464.218 70.1684 463.857C69.7706 463.497 83.5051 453.581 100.69 441.825C117.874 430.068 131.763 419.926 131.553 419.287C131.326 418.597 123.86 417.681 113.123 417.027L95.0732 415.927L120.353 398.787C134.257 389.36 146.638 381.113 147.866 380.461C150.817 378.897 190.006 377.329 188.498 378.838C187.893 379.442 179.238 385.524 169.263 392.353C146.132 408.19 142.494 411.03 143.741 412.276C144.687 413.223 177.889 415.263 193.603 415.342L200.907 415.378L230.023 394.661L259.141 373.943L273.279 373.243C281.055 372.858 298.794 372.219 312.697 371.822L337.977 371.102L305.828 396.71C288.147 410.794 273.679 422.953 273.679 423.728C273.679 425.759 277.735 426.085 328.936 428.172L374.849 430.045L378.396 427.426C380.346 425.985 397.521 411.651 416.564 395.573C435.606 379.495 451.845 365.941 452.651 365.453C453.455 364.963 485.758 363.666 524.435 362.569C582.21 360.93 595.184 360.284 597.16 358.951C602.494 355.351 667.711 291.73 667.711 290.126C667.711 287.919 673.58 287.416 591.872 296.619C552.167 301.09 521.221 305.061 519.331 305.928C517.517 306.76 503.668 318.19 488.555 331.328C473.443 344.466 460.088 355.85 458.879 356.624C457.329 357.618 441.76 358.734 406.032 360.411C378.174 361.719 353.972 362.625 352.25 362.424C349.435 362.095 351.686 360.03 374.598 341.936C397.024 324.224 402.883 318.632 399.014 318.632C398.429 318.632 380.098 320.599 358.279 323.003C322.973 326.893 318.222 327.646 315.102 329.843C313.176 331.202 301.007 340.173 288.062 349.78C275.117 359.385 263.246 367.646 261.683 368.136C259.142 368.934 204.435 370.562 204.435 369.84C204.435 369.679 214.327 362.725 226.417 354.389C238.507 346.053 248.399 338.555 248.399 337.727C248.399 335.885 245.326 335.839 224.919 337.384C216.538 338.018 209.488 338.344 209.25 338.107C208.842 337.7 240.933 315.946 245.683 313.409C248.026 312.159 287.343 306.147 289.178 306.759C289.762 306.954 283.544 312.302 275.36 318.644C260.287 330.324 257.715 333.731 264.353 333.223C284.881 331.653 309.883 329.452 311.753 329.05C313.048 328.772 323.682 321.22 335.384 312.268C347.086 303.315 357.208 295.658 357.877 295.251C359.223 294.432 447.427 279.875 447.939 280.388C448.116 280.565 439.363 287.775 428.487 296.412C417.611 305.049 408.919 312.716 409.17 313.449C409.453 314.276 411.259 314.651 413.919 314.433C423.521 313.649 521.671 302.052 523.47 301.489C524.538 301.156 536.567 291.519 550.2 280.073C563.835 268.629 575.204 259.265 575.466 259.265C576.409 259.265 722.716 236.172 724.653 235.718C725.745 235.461 726.487 235.669 726.301 236.179C725.524 238.314 408.104 551.997 405.815 552.891C403.961 553.616 351.249 542.879 202.489 511.477C92.0375 488.16 1.53876 468.955 1.38159 468.798C1.04636 468.462 235.811 308.467 239.057 306.819C240.266 306.206 246.448 303.211 252.796 300.164C259.143 297.117 267.551 292.148 271.481 289.122C275.41 286.096 282.334 281.558 286.868 279.037C298.524 272.558 308.308 265.837 316.233 258.865C320.243 255.338 325.543 251.927 329.057 250.612C336.813 247.709 351.541 245.183 367.981 243.934L381.086 242.939L392.505 247.271C428.544 260.943 452.834 264.284 452.834 255.57C452.834 247.364 436.874 243.027 402.965 242.018L381.124 241.367L363.947 232.845C338.478 220.208 328.597 212.274 330.228 205.774C331.355 201.282 342.203 191.408 356.159 182.17C376.622 168.623 381.45 166.355 395.68 163.602C417.403 159.399 438.74 152.282 444.316 147.38C447.124 144.909 446.733 141.797 443.512 140.988C437.651 139.517 417.425 146.661 393.565 158.63C382.881 163.989 379.772 165.015 369.527 166.562C362.591 167.608 350.074 168.384 339.032 168.451C322.831 168.55 319.902 168.303 317.325 166.617C314.833 164.986 314.346 163.877 314.346 159.831C314.346 153.498 319.217 139.372 327.047 123.001C332.672 111.243 334.016 109.299 339.511 104.976C366.19 83.9922 387.122 59.1802 383.637 52.6685C378.754 43.5425 360.679 61.4119 340.127 95.6842C332.353 108.648 332.011 109.027 321.354 116.553C308.985 125.286 292.799 133.611 286.315 134.575C282.85 135.089 281.294 134.739 278.982 132.92C273.513 128.617 268.911 108.735 267.526 83.4249L266.83 70.7204L271.222 59.7266C285.512 23.9581 288.962 1.05239 280.217 0.0332577C278.512 -0.165731 276.656 0.540067 275.486 1.83294ZM281.844 2.6366C285.897 6.69113 281.501 29.2703 272.12 52.5806L267.033 65.2235L267.618 48.7327C268.483 24.3912 272.334 6.04469 277.309 2.55964C280.166 0.557661 279.758 0.551064 281.844 2.6366ZM173.522 15.0652C174.973 17.6971 177.308 23.2391 178.708 27.3805C181.352 35.196 187.221 61.3713 186.492 62.0991C185.775 62.817 171.796 33.7217 168.813 25.3048C166 17.3651 165.238 11.8978 166.736 10.3994C168.414 8.7217 171.008 10.506 173.522 15.0652ZM380.752 52.1485C386.341 54.2934 378.66 66.1283 359.727 84.5364C351.996 92.054 343.485 99.9212 340.812 102.019L335.954 105.833L339.078 100.37C350.631 80.1719 367.615 58.2171 375.326 53.514C379.186 51.1591 378.575 51.313 380.752 52.1485ZM86.7474 76.8869C93.2388 81.2229 117.789 104.922 119.953 108.942C122.229 113.169 90.092 91.7121 80.8628 82.8423C70.1432 72.5399 74.1582 68.4777 86.7474 76.8869ZM199.643 87.7994C212.954 109.04 226.932 125.14 232.058 125.14C237.241 125.14 249.846 107.074 260.05 85.0202C262.408 79.9245 264.707 75.7358 265.161 75.7116C265.615 75.6875 265.985 78.8581 265.985 82.7576C265.985 92.9192 268.909 113.802 271.51 122.228C272.735 126.193 275.05 130.998 276.654 132.905C279.388 136.155 279.941 136.343 285.431 135.888C292.481 135.303 307.342 128.218 320.368 119.233C325.191 115.906 329.275 113.322 329.444 113.489C329.611 113.657 327.087 119.439 323.834 126.338C314.448 146.246 310.667 159.897 313.218 164.664C313.936 166.005 316.338 167.886 318.556 168.844C325.235 171.725 354.72 170.933 374.248 167.345C376.472 166.936 373.843 169.004 366.168 173.7C350.888 183.046 336.61 194.008 332.228 199.754C328.054 205.227 327.66 209.356 330.915 213.495C334.786 218.419 347.139 226.502 362.365 234.076L376.925 241.32L362.947 242.661C347.899 244.106 332.732 247.062 326.252 249.813C324.035 250.754 319.336 254.064 315.81 257.167C309.065 263.107 296.556 271.923 290.315 275.137C286.667 277.016 286.695 276.948 292.31 270.078C299.411 261.388 308.123 243.647 310.412 233.213C312.652 223 312.649 206.008 310.406 197.308C302.895 168.185 274.189 147.199 241.805 147.154C213.775 147.116 184.471 164.174 172.161 187.693C166.483 198.539 164.499 206.54 164.494 218.588C164.49 235.293 168.886 247.935 179.709 262.336C188.419 273.925 200.242 282.487 214.62 287.619C221.739 290.16 224.235 290.461 238.507 290.506C253.793 290.554 256.687 290.151 270.072 286.118C275.756 284.405 260.454 291.546 253.148 294.017C241.592 297.924 224.168 298.823 211.15 296.185C203.824 294.7 201.255 294.587 198.018 295.609C189.385 298.333 163.783 313.441 147.854 325.211C144.567 327.639 141.577 329.626 141.206 329.626C140.836 329.626 142.501 326.04 144.907 321.655C155.069 303.14 165.966 275.669 165.966 268.563C165.966 262.368 164.269 262.001 136.067 262.106L111.113 262.199L119.58 256.4C138.928 243.148 150.578 230.923 150.578 223.871C150.578 217.042 137.641 206.873 115.134 196.015L103.322 190.316L115.684 189.534C138.462 188.094 152.412 184.246 157.31 178.052C159.189 175.677 159.482 174.19 158.958 169.704C157.889 160.56 146.649 139.676 134.679 124.59C132.758 122.172 130.892 119.698 130.531 119.093C130.169 118.489 137.972 122.028 147.869 126.957C167.778 136.873 181.558 141.96 187.073 141.43C190.106 141.138 190.909 140.454 192.008 137.233C194.331 130.418 193.659 99.742 190.695 77.3168C190.019 72.2057 189.462 71.5527 199.643 87.7994ZM445.141 143.659C445.141 145.356 441.293 148.105 435.057 150.863C424.345 155.602 386.379 165.092 390.559 161.986C393.647 159.69 418.605 148.644 427.713 145.541C435.63 142.843 445.141 141.817 445.141 143.659ZM260.416 151.131C279.987 156.18 297.134 170.085 305.191 187.437C317.509 213.968 309.528 250.064 285.913 274.615C280.221 280.532 278.885 281.314 269.27 284.361C244.716 292.14 224.196 291.309 205.63 281.783C169.248 263.117 155.51 220.168 174.925 185.787C184.971 167.995 208.602 152.987 232.437 149.262C239.333 148.184 252.372 149.055 260.416 151.131ZM48.0147 173.995C57.1231 175.916 78.7536 182.484 86.2803 185.613L91.7759 187.897L79.0262 187.306C63.9354 186.607 41.4288 182.973 33.2745 179.922C27.846 177.891 24.4618 174.697 26.0512 173.107C27.3041 171.854 40.3726 172.382 48.0147 173.995ZM665.192 304.983C622.75 347.059 588.025 382.325 588.025 383.352C588.025 384.38 606.784 415.363 629.71 452.206C652.636 489.05 671.155 519.582 670.862 520.056C670.568 520.531 666.725 520.919 662.321 520.919C656.056 520.919 653.953 520.5 652.663 518.995C649.819 515.68 572.638 393.681 572.638 392.502C572.638 391.886 607.754 356.557 650.675 313.992C693.595 271.429 728.712 236.013 728.712 235.292C728.712 234.57 727.925 233.979 726.962 233.979C721.721 233.979 577.056 257.374 574.286 258.669C572.473 259.518 560.478 269.129 547.631 280.028C530.871 294.245 523.263 300.017 520.702 300.459C512.854 301.812 411.826 313.161 411.402 312.737C411.153 312.486 419.876 305.226 430.789 296.602C445.702 284.819 450.349 280.583 449.494 279.552C448.869 278.799 447.51 278.37 446.474 278.602C445.438 278.833 426.043 281.999 403.374 285.638C380.705 289.277 361.122 292.491 359.856 292.779C358.59 293.066 347.522 300.98 335.258 310.364C322.995 319.749 312.655 327.435 312.28 327.443C311.905 327.452 300.964 328.434 287.967 329.626C274.97 330.817 263.63 331.799 262.765 331.808C261.901 331.817 267.068 327.248 274.248 321.655C291.105 308.522 294.183 305.793 293.22 304.83C292.785 304.395 281.904 305.603 269.041 307.515L245.652 310.991L227.243 323.217C208.638 335.574 205.726 337.88 207.051 339.205C207.452 339.607 216.549 339.404 227.266 338.754C237.983 338.104 246.877 337.683 247.031 337.819C247.186 337.955 237.306 344.949 225.076 353.36C212.846 361.772 202.959 369.149 203.103 369.753C203.486 371.357 260.863 370.769 263.925 369.13C265.217 368.438 277.6 359.497 291.442 349.261C305.284 339.024 317.707 330.192 319.049 329.635C321.872 328.46 393.545 320.465 396.316 321.014C397.495 321.247 389.135 328.485 373.21 341.015C350.351 359.002 346.105 362.858 347.556 364.31C347.836 364.589 372.601 363.653 402.591 362.228C447.703 360.084 457.58 359.333 459.807 357.873C461.286 356.904 474.543 345.645 489.265 332.855C503.988 320.063 517.071 308.902 518.339 308.051C519.874 307.022 544.693 303.745 592.529 298.257C632.065 293.72 664.933 290.141 665.569 290.303C666.932 290.65 597.662 357.302 594.874 358.326C593.827 358.711 561.811 359.884 523.727 360.934C481.256 362.104 453.642 363.289 452.309 363.997C451.113 364.632 433.642 379.05 413.483 396.036C393.325 413.023 375.925 427.259 374.818 427.672C373.168 428.288 283.065 424.823 276.725 423.9C275.545 423.728 286.31 414.453 305.087 399.463C339.979 371.606 340.134 371.471 338.839 370.175C337.364 368.7 264.086 371.253 259.391 372.943C257.275 373.704 243.179 383.193 228.066 394.028L200.588 413.729L194.543 413.574C164.201 412.793 145.03 411.693 145.94 410.782C146.517 410.205 156.776 402.964 168.739 394.691C180.702 386.417 190.289 379.153 190.043 378.548C189.768 377.871 181.789 377.449 169.263 377.449H148.93L121.183 396.139C105.921 406.418 93.4334 415.389 93.4301 416.074C93.4213 418.124 97.5682 418.645 114.033 418.661C122.647 418.669 129.672 419.046 129.644 419.5C129.615 419.955 115.504 429.927 98.2848 441.662C81.0661 453.398 67.1536 463.54 67.3679 464.199C67.8625 465.725 114.866 473.754 119.177 473.048C121.139 472.727 135.006 463.059 154.678 448.299C172.433 434.977 188.048 423.677 189.377 423.189C191.335 422.471 254.641 425.542 260.474 426.639C261.372 426.807 247.029 438.768 228.6 453.22C191.007 482.696 188.657 484.689 189.953 485.985C190.46 486.492 212.025 490.588 237.878 495.089C280.658 502.536 285.191 503.135 288.347 501.769C290.254 500.942 309.351 485.619 330.784 467.716L369.754 435.167L375.848 435.128C387.182 435.057 502.829 440.86 504.817 441.6C506.394 442.187 499.987 448.971 472.943 475.351C405.625 541.016 408.353 538.505 404.293 538.546C399.746 538.594 19.784 464.609 19.784 463.677C19.784 463.124 159.627 367.462 227.543 321.556L245.174 309.64L492.163 269.168C628.008 246.91 739.874 228.649 740.756 228.59C741.637 228.531 707.633 262.907 665.192 304.983ZM429.712 245.574C444.598 247.982 452.746 252.052 451.128 256.269C450.298 258.435 444.455 259.515 438.377 258.626C426.186 256.844 389.355 245.771 386.98 243.173C385.875 241.966 418.865 243.82 429.712 245.574ZM100.112 266.853C95.215 270.618 68.5132 283.37 58.4981 286.727C48.0686 290.222 37.7754 291.113 35.3914 288.729C33.202 286.539 33.901 282.647 36.9115 280.278C43.3314 275.227 64.0903 269.822 89.6403 266.55C96.2559 265.702 101.915 264.964 102.217 264.909C102.52 264.855 101.572 265.729 100.112 266.853ZM127.945 348.04C114.806 368.562 104.444 380.197 99.3103 380.197C94.3368 380.197 95.4766 375.194 102.537 366.04C106.81 360.501 131.36 338.421 133.246 338.421C133.718 338.421 131.333 342.75 127.945 348.04Z" fill="#888888"/>
</svg>
